<svg xmlns="http://www.w3.org/2000/svg" viewBox="0 0 2414.55 300.91"><defs><style>.cls-1{fill:#fff;}</style></defs><title>Asset 9</title><g id="Layer_2" data-name="Layer 2"><g id="Layer_1-2" data-name="Layer 1"><path class="cls-1" d="M190.08,236.55H84.28L64.17,296.89H0L109,4h55.92L274.56,296.89H210.4Zm-89.51-48.88h73.22L137,78Z"/><path class="cls-1" d="M381,144.22l36.61-65h62.15l-62,106.61,64.57,111H420L381.17,228.5l-38.62,68.39H280l64.57-111L282.81,79.25h62.36Z"/><path class="cls-1" d="M490.59,186.06A137.23,137.23,0,0,1,497.43,142a100.88,100.88,0,0,1,19.92-35.1,91.53,91.53,0,0,1,32.28-23.23q19.2-8.46,43.75-8.45,24.74,0,44,8.45a92.4,92.4,0,0,1,32.48,23.23,100,100,0,0,1,20,35.1,137.23,137.23,0,0,1,6.84,44.05v4.22a137,137,0,0,1-6.84,44.16,100,100,0,0,1-20,35,91.82,91.82,0,0,1-32.28,23.14q-19.11,8.34-43.85,8.34t-43.95-8.34a91.58,91.58,0,0,1-32.38-23.14,100,100,0,0,1-20-35,137,137,0,0,1-6.84-44.16Zm58.13,4.22a123,123,0,0,0,2.42,24.95,61.54,61.54,0,0,0,7.74,20.21A40.08,40.08,0,0,0,572.76,249q8.55,5,21,5,12.08,0,20.62-5a41,41,0,0,0,14-13.58,60.12,60.12,0,0,0,7.84-20.21,123,123,0,0,0,2.42-24.95v-4.22a119.38,119.38,0,0,0-2.42-24.44,62.45,62.45,0,0,0-7.84-20.32,41.06,41.06,0,0,0-14.08-13.87q-8.65-5.13-20.92-5.13-12.07,0-20.62,5.13a40.41,40.41,0,0,0-13.88,13.87,64,64,0,0,0-7.74,20.32,119.38,119.38,0,0,0-2.42,24.44Z"/><path class="cls-1" d="M786.08,79.25l1.81,25.14A76.36,76.36,0,0,1,815,82.77a81.47,81.47,0,0,1,35.4-7.54,86.86,86.86,0,0,1,28.16,4.32,51.94,51.94,0,0,1,21.73,14.18q9,9.87,14,25.75t4.92,39V296.89H861.1V158.1q0-10.46-2.31-17.3a25.22,25.22,0,0,0-6.74-10.86,25.64,25.64,0,0,0-10.86-5.73,58.2,58.2,0,0,0-14.88-1.71q-12.88,0-22,5.63a43.1,43.1,0,0,0-14.78,15.29V296.89H731.36V79.25Z"/><path class="cls-1" d="M1299.6,199.33a119.79,119.79,0,0,1-10.06,41,95.31,95.31,0,0,1-23.33,32.08q-14.89,13.38-36.11,20.92t-48.37,7.54q-28.17,0-50.59-9.75a103.41,103.41,0,0,1-38-28.06q-15.58-18.3-23.93-44.35t-8.35-58.44V141q0-32.39,8.65-58.53T1093.93,38a106,106,0,0,1,38.32-28.16Q1154.76,0,1182.53,0q27.36,0,48.38,7.74t35.7,21.53a97.74,97.74,0,0,1,22.93,32.78A137,137,0,0,1,1300,103.39h-60.34a91,91,0,0,0-4.53-23.13A45.33,45.33,0,0,0,1225,63.36,42.1,42.1,0,0,0,1207.88,53q-10.47-3.51-25.35-3.52-30.57,0-45.56,22.23t-15,68.89v19.71q0,22.74,3.32,39.83t10.46,28.56a46,46,0,0,0,18.5,17.2q11.37,5.73,27.46,5.73,14.28,0,24.64-3.22a41.79,41.79,0,0,0,28.06-26.14,81.13,81.13,0,0,0,4.83-22.94Z"/><path class="cls-1" d="M1457.7,133.76q-4.42-.6-10.36-1.1t-10.56-.51q-17.1,0-27.66,5.74a35.26,35.26,0,0,0-15.58,16.59V296.89H1335.4V79.25h54.92l1.61,26a65.21,65.21,0,0,1,20.31-22q12.08-7.94,28.16-7.94a63.81,63.81,0,0,1,9.76.8,60.29,60.29,0,0,1,8.34,1.81Z"/><path class="cls-1" d="M1582,300.91q-25.35,0-45.36-8.24a100.49,100.49,0,0,1-34-22.53,96.51,96.51,0,0,1-21.33-33.49,114.36,114.36,0,0,1-7.34-41.14v-7.84q0-24.75,7.14-45.36a104.49,104.49,0,0,1,20.32-35.5,91.84,91.84,0,0,1,32-23.23q18.81-8.35,42.14-8.35,23.54,0,41.44,7.74a83,83,0,0,1,30.07,21.73,92.42,92.42,0,0,1,18.3,33.69q6.13,19.71,6.14,43.85V207H1532.93a60.72,60.72,0,0,0,5.73,19.31,49.9,49.9,0,0,0,11.06,14.78,48.77,48.77,0,0,0,15.79,9.56,57.17,57.17,0,0,0,20.32,3.42,72,72,0,0,0,29.37-5.94,59.23,59.23,0,0,0,23.13-18.4l28.56,32a86.29,86.29,0,0,1-13.07,14.48,88.09,88.09,0,0,1-18.51,12.57,109,109,0,0,1-24,8.85A121.11,121.11,0,0,1,1582,300.91Zm-6.64-178.61a38.84,38.84,0,0,0-16.59,3.32,36,36,0,0,0-12.27,9.25,48.08,48.08,0,0,0-8.35,14.18,81.12,81.12,0,0,0-4.63,18.3h80.86v-4.62a58.48,58.48,0,0,0-2.51-16.09,35.46,35.46,0,0,0-7-12.88,31.76,31.76,0,0,0-12.07-8.45A45.7,45.7,0,0,0,1575.37,122.3Z"/><path class="cls-1" d="M1830.62,296.89a64.67,64.67,0,0,1-5.83-19.51,75.69,75.69,0,0,1-22.23,16.69q-13.38,6.84-32.68,6.84a87,87,0,0,1-29.27-4.82,72.37,72.37,0,0,1-23.53-13.48A61.81,61.81,0,0,1,1701.49,262a60.74,60.74,0,0,1-5.63-26.25q0-17.09,6.33-30.37a59.39,59.39,0,0,1,19-22.53q12.67-9.26,31.48-14.08t43.75-4.83h26V151.46q0-15.08-7.75-24.13t-24.44-9.06q-14.68,0-23,7t-8.34,19.31h-58.14a57.56,57.56,0,0,1,6.54-26.75,67,67,0,0,1,18.61-22.12,93.25,93.25,0,0,1,29.16-15q17.1-5.54,38.22-5.53a121.31,121.31,0,0,1,35,4.83A79,79,0,0,1,1856,94.44a65.56,65.56,0,0,1,18.2,23.93q6.54,14.38,6.54,33.49V244q0,9.25.6,16.59t1.61,13.28a67.87,67.87,0,0,0,2.62,10.66,61.91,61.91,0,0,0,3.82,9v3.42Zm-48.07-40.43a49.79,49.79,0,0,0,25.14-6.54,40.27,40.27,0,0,0,8.75-6.74,36.69,36.69,0,0,0,5.94-7.84V197.93h-23.94a70.39,70.39,0,0,0-19.91,2.51,38.64,38.64,0,0,0-13.88,7,28.12,28.12,0,0,0-8.05,10.66,33.82,33.82,0,0,0-2.61,13.38,23.25,23.25,0,0,0,7.64,17.9Q1769.28,256.47,1782.55,256.46Z"/><path class="cls-1" d="M1995,25.75v53.5h37.21v42.64H1995V230.51a37.82,37.82,0,0,0,1.41,11.27,14.18,14.18,0,0,0,11.16,10.36,46.28,46.28,0,0,0,9.76.9c3.48,0,6.67-.13,9.55-.4s5.4-.6,7.54-1v44.05a131.09,131.09,0,0,1-15.79,3.72,112,112,0,0,1-19.41,1.51,87.41,87.41,0,0,1-25.74-3.52,49.17,49.17,0,0,1-19.61-11.16,49.86,49.86,0,0,1-12.58-19.91q-4.43-12.27-4.42-29.57V121.89h-31.78V79.25h31.78V25.75Z"/><path class="cls-1" d="M2049.47,186.06a137.23,137.23,0,0,1,6.84-44.05,100.86,100.86,0,0,1,19.91-35.1,91.66,91.66,0,0,1,32.29-23.23q19.2-8.46,43.74-8.45,24.75,0,44.06,8.45a92.4,92.4,0,0,1,32.48,23.23,100,100,0,0,1,20,35.1,137.23,137.23,0,0,1,6.84,44.05v4.22a137,137,0,0,1-6.84,44.16,100,100,0,0,1-20,35,91.82,91.82,0,0,1-32.28,23.14q-19.11,8.34-43.85,8.34t-43.95-8.34a91.62,91.62,0,0,1-32.39-23.14,100.17,100.17,0,0,1-20-35,137,137,0,0,1-6.84-44.16Zm58.13,4.22a123.75,123.75,0,0,0,2.41,24.95,61.33,61.33,0,0,0,7.75,20.21A40.08,40.08,0,0,0,2131.64,249q8.55,5,21,5,12.06,0,20.62-5a41,41,0,0,0,14-13.58,59.92,59.92,0,0,0,7.85-20.21,123,123,0,0,0,2.41-24.95v-4.22a119.39,119.39,0,0,0-2.41-24.44,62.24,62.24,0,0,0-7.85-20.32,41,41,0,0,0-14.08-13.87q-8.64-5.13-20.92-5.13-12.06,0-20.61,5.13a40.41,40.41,0,0,0-13.88,13.87,63.74,63.74,0,0,0-7.75,20.32,120.09,120.09,0,0,0-2.41,24.44Z"/><path class="cls-1" d="M2413.74,133.76q-4.42-.6-10.35-1.1t-10.56-.51q-17.1,0-27.66,5.74a35.28,35.28,0,0,0-15.59,16.59V296.89h-58.13V79.25h54.91l1.61,26a65.23,65.23,0,0,1,20.32-22q12.06-7.94,28.16-7.94a63.79,63.79,0,0,1,9.75.8,60.81,60.81,0,0,1,8.35,1.81Z"/></g></g></svg>