<?xml version="1.0" standalone="no"?>
<!DOCTYPE svg PUBLIC "-//W3C//DTD SVG 20010904//EN"
 "http://www.w3.org/TR/2001/REC-SVG-20010904/DTD/svg10.dtd">
<svg version="1.0" xmlns="http://www.w3.org/2000/svg"
 width="458.000000pt" height="452.000000pt" viewBox="0 0 458.000000 452.000000"
 preserveAspectRatio="xMidYMid meet">

<g transform="translate(0.000000,452.000000) scale(0.100000,-0.100000)"
fill="#000000" stroke="none">
<path d="M440 3978 l0 -313 1638 5 c1517 5 1640 6 1655 22 9 9 17 25 17 35 0
10 9 25 20 33 11 8 20 21 20 30 0 9 9 22 20 30 11 8 20 20 20 27 0 7 14 27 30
45 17 17 30 37 30 44 0 8 4 14 8 14 5 0 15 12 23 28 8 15 22 36 32 46 9 11 17
24 17 28 0 5 11 21 25 36 14 15 25 32 25 39 0 7 4 13 8 13 5 0 15 12 23 28 8
15 22 36 32 46 9 11 17 26 17 33 0 7 4 13 9 13 5 0 11 7 15 15 5 13 -204 15
-1839 15 l-1845 0 0 -312z"/>
<path d="M1780 2990 l0 -410 855 0 856 0 24 25 c14 13 25 29 25 35 0 6 15 25
33 43 37 38 97 112 111 136 6 9 22 30 38 46 15 17 28 36 28 42 0 7 18 32 40
54 22 23 40 45 40 50 0 5 14 23 30 41 17 17 30 35 30 40 0 5 16 24 35 44 19
19 35 39 35 44 0 5 10 19 23 32 34 34 117 147 117 158 0 6 5 10 10 10 6 0 10
5 10 10 0 7 -397 10 -1170 10 l-1170 0 0 -410z"/>
<path d="M1780 1844 c0 -286 2 -348 14 -360 12 -12 134 -14 809 -14 l794 0 14
28 c8 15 26 39 41 54 16 14 28 31 28 37 0 6 18 30 40 52 22 23 40 47 40 53 0
6 9 18 20 26 11 8 20 18 20 22 0 4 8 16 18 26 22 24 75 90 86 111 5 9 16 22
23 29 7 8 26 30 41 50 15 21 29 39 32 42 3 3 17 21 30 40 13 19 30 41 37 48 7
8 27 33 44 58 l30 44 -1081 0 -1080 0 0 -346z"/>
</g>
</svg>
